<?xml version="1.0" encoding="UTF-8" standalone="no"?>
<!DOCTYPE svg PUBLIC "-//W3C//DTD SVG 1.1//EN"
 "http://www.w3.org/Graphics/SVG/1.1/DTD/svg11.dtd">
<!-- Generated by graphviz version 2.47.0 (20210316.0004)
 -->
<!-- Title: dependencies Pages: 1 -->
<svg width="2238pt" height="284pt"
 viewBox="0.00 0.00 2238.00 284.00" xmlns="http://www.w3.org/2000/svg" xmlns:xlink="http://www.w3.org/1999/xlink">
<g id="graph0" class="graph" transform="scale(1 1) rotate(0) translate(4 280)">
<title>dependencies</title>
<polygon fill="white" stroke="transparent" points="-4,4 -4,-280 2234,-280 2234,4 -4,4"/>
<text text-anchor="start" x="1094.01" y="-42.4" font-family="sans-serif" font-weight="bold" font-size="14.00">Legend</text>
<polygon fill="#ffffb3" stroke="transparent" points="881,-10 881,-30 901,-30 901,-10 881,-10"/>
<text text-anchor="start" x="904.63" y="-15.4" font-family="sans-serif" font-size="14.00"> &#160;Declarations</text>
<polygon fill="#8dd3c7" stroke="transparent" points="994,-10 994,-30 1014,-30 1014,-10 994,-10"/>
<text text-anchor="start" x="1017.73" y="-15.4" font-family="sans-serif" font-size="14.00"> &#160;Module</text>
<polygon fill="#80b1d3" stroke="transparent" points="1080,-10 1080,-30 1100,-30 1100,-10 1080,-10"/>
<text text-anchor="start" x="1103.78" y="-15.4" font-family="sans-serif" font-size="14.00"> &#160;Bootstrap</text>
<polygon fill="#fdb462" stroke="transparent" points="1177,-10 1177,-30 1197,-30 1197,-10 1177,-10"/>
<text text-anchor="start" x="1200.67" y="-15.4" font-family="sans-serif" font-size="14.00"> &#160;Providers</text>
<polygon fill="#fb8072" stroke="transparent" points="1273,-10 1273,-30 1293,-30 1293,-10 1273,-10"/>
<text text-anchor="start" x="1296.73" y="-15.4" font-family="sans-serif" font-size="14.00"> &#160;Exports</text>
<g id="clust1" class="cluster">
<title>cluster_AppModule</title>
<polygon fill="none" stroke="black" stroke-dasharray="1,5" points="8,-70 8,-268 2222,-268 2222,-70 8,-70"/>
</g>
<g id="clust15" class="cluster">
<title>cluster_AppModule_imports</title>
<polygon fill="none" stroke="black" points="2070,-78 2070,-130 2214,-130 2214,-78 2070,-78"/>
</g>
<g id="clust17" class="cluster">
<title>cluster_AppModule_bootstrap</title>
<polygon fill="none" stroke="black" points="1047,-208 1047,-260 1171,-260 1171,-208 1047,-208"/>
</g>
<g id="clust2" class="cluster">
<title>cluster_AppModule_declarations</title>
<polygon fill="none" stroke="black" points="16,-78 16,-130 2062,-130 2062,-78 16,-78"/>
</g>
<!-- AddanswersComponent -->
<g id="node1" class="node">
<title>AddanswersComponent</title>
<polygon fill="#ffffb3" stroke="black" points="2054.03,-122 1903.97,-122 1903.97,-86 2054.03,-86 2054.03,-122"/>
<text text-anchor="middle" x="1979" y="-99.8" font-family="Times,serif" font-size="14.00">AddanswersComponent</text>
</g>
<!-- AppModule -->
<g id="node13" class="node">
<title>AppModule</title>
<polygon fill="#8dd3c7" stroke="black" points="1150.66,-187 1147.66,-191 1126.66,-191 1123.66,-187 1067.34,-187 1067.34,-151 1150.66,-151 1150.66,-187"/>
<text text-anchor="middle" x="1109" y="-164.8" font-family="Times,serif" font-size="14.00">AppModule</text>
</g>
<!-- AddanswersComponent&#45;&gt;AppModule -->
<g id="edge1" class="edge">
<title>AddanswersComponent&#45;&gt;AppModule</title>
<path fill="none" stroke="black" d="M1979,-122.04C1979,-143.66 1979,-177 1979,-177 1979,-177 1160.67,-177 1160.67,-177"/>
<polygon fill="black" stroke="black" points="1160.67,-173.5 1150.67,-177 1160.67,-180.5 1160.67,-173.5"/>
</g>
<!-- AddcommentsComponent -->
<g id="node2" class="node">
<title>AddcommentsComponent</title>
<polygon fill="#ffffb3" stroke="black" points="1885.48,-122 1722.52,-122 1722.52,-86 1885.48,-86 1885.48,-122"/>
<text text-anchor="middle" x="1804" y="-99.8" font-family="Times,serif" font-size="14.00">AddcommentsComponent</text>
</g>
<!-- AddcommentsComponent&#45;&gt;AppModule -->
<g id="edge2" class="edge">
<title>AddcommentsComponent&#45;&gt;AppModule</title>
<path fill="none" stroke="black" d="M1804,-122.22C1804,-142.37 1804,-172 1804,-172 1804,-172 1160.91,-172 1160.91,-172"/>
<polygon fill="black" stroke="black" points="1160.91,-168.5 1150.91,-172 1160.91,-175.5 1160.91,-168.5"/>
</g>
<!-- AddquestionsComponent -->
<g id="node3" class="node">
<title>AddquestionsComponent</title>
<polygon fill="#ffffb3" stroke="black" points="1704.32,-122 1545.68,-122 1545.68,-86 1704.32,-86 1704.32,-122"/>
<text text-anchor="middle" x="1625" y="-99.8" font-family="Times,serif" font-size="14.00">AddquestionsComponent</text>
</g>
<!-- AddquestionsComponent&#45;&gt;AppModule -->
<g id="edge3" class="edge">
<title>AddquestionsComponent&#45;&gt;AppModule</title>
<path fill="none" stroke="black" d="M1625,-122.22C1625,-140.83 1625,-167 1625,-167 1625,-167 1160.79,-167 1160.79,-167"/>
<polygon fill="black" stroke="black" points="1160.79,-163.5 1150.79,-167 1160.79,-170.5 1160.79,-163.5"/>
</g>
<!-- AnswerQueryPageComponent -->
<g id="node4" class="node">
<title>AnswerQueryPageComponent</title>
<polygon fill="#ffffb3" stroke="black" points="1527.56,-122 1340.44,-122 1340.44,-86 1527.56,-86 1527.56,-122"/>
<text text-anchor="middle" x="1434" y="-99.8" font-family="Times,serif" font-size="14.00">AnswerQueryPageComponent</text>
</g>
<!-- AnswerQueryPageComponent&#45;&gt;AppModule -->
<g id="edge4" class="edge">
<title>AnswerQueryPageComponent&#45;&gt;AppModule</title>
<path fill="none" stroke="black" d="M1434,-122.03C1434,-139.06 1434,-162 1434,-162 1434,-162 1160.82,-162 1160.82,-162"/>
<polygon fill="black" stroke="black" points="1160.82,-158.5 1150.82,-162 1160.82,-165.5 1160.82,-158.5"/>
</g>
<!-- AnswerlistComponent -->
<g id="node5" class="node">
<title>AnswerlistComponent</title>
<polygon fill="#ffffb3" stroke="black" points="1321.98,-122 1180.02,-122 1180.02,-86 1321.98,-86 1321.98,-122"/>
<text text-anchor="middle" x="1251" y="-99.8" font-family="Times,serif" font-size="14.00">AnswerlistComponent</text>
</g>
<!-- AnswerlistComponent&#45;&gt;AppModule -->
<g id="edge5" class="edge">
<title>AnswerlistComponent&#45;&gt;AppModule</title>
<path fill="none" stroke="black" d="M1251,-122.24C1251,-137.57 1251,-157 1251,-157 1251,-157 1160.84,-157 1160.84,-157"/>
<polygon fill="black" stroke="black" points="1160.84,-153.5 1150.84,-157 1160.84,-160.5 1160.84,-153.5"/>
</g>
<!-- AppComponent -->
<g id="node6" class="node">
<title>AppComponent</title>
<polygon fill="#ffffb3" stroke="black" points="1161.94,-122 1056.06,-122 1056.06,-86 1161.94,-86 1161.94,-122"/>
<text text-anchor="middle" x="1109" y="-99.8" font-family="Times,serif" font-size="14.00">AppComponent</text>
</g>
<!-- AppComponent&#45;&gt;AppModule -->
<g id="edge6" class="edge">
<title>AppComponent&#45;&gt;AppModule</title>
<path fill="none" stroke="black" d="M1109,-122.11C1109,-122.11 1109,-140.99 1109,-140.99"/>
<polygon fill="black" stroke="black" points="1105.5,-140.99 1109,-150.99 1112.5,-140.99 1105.5,-140.99"/>
</g>
<!-- CommentlistComponent -->
<g id="node7" class="node">
<title>CommentlistComponent</title>
<polygon fill="#ffffb3" stroke="black" points="1037.67,-122 884.33,-122 884.33,-86 1037.67,-86 1037.67,-122"/>
<text text-anchor="middle" x="961" y="-99.8" font-family="Times,serif" font-size="14.00">CommentlistComponent</text>
</g>
<!-- CommentlistComponent&#45;&gt;AppModule -->
<g id="edge7" class="edge">
<title>CommentlistComponent&#45;&gt;AppModule</title>
<path fill="none" stroke="black" d="M961,-122.24C961,-137.57 961,-157 961,-157 961,-157 1056.99,-157 1056.99,-157"/>
<polygon fill="black" stroke="black" points="1056.99,-160.5 1066.99,-157 1056.98,-153.5 1056.99,-160.5"/>
</g>
<!-- LoginPageComponent -->
<g id="node8" class="node">
<title>LoginPageComponent</title>
<polygon fill="#ffffb3" stroke="black" points="865.99,-122 724.01,-122 724.01,-86 865.99,-86 865.99,-122"/>
<text text-anchor="middle" x="795" y="-99.8" font-family="Times,serif" font-size="14.00">LoginPageComponent</text>
</g>
<!-- LoginPageComponent&#45;&gt;AppModule -->
<g id="edge8" class="edge">
<title>LoginPageComponent&#45;&gt;AppModule</title>
<path fill="none" stroke="black" d="M795,-122.03C795,-139.06 795,-162 795,-162 795,-162 1057.3,-162 1057.3,-162"/>
<polygon fill="black" stroke="black" points="1057.3,-165.5 1067.3,-162 1057.3,-158.5 1057.3,-165.5"/>
</g>
<!-- QuestionlistComponent -->
<g id="node9" class="node">
<title>QuestionlistComponent</title>
<polygon fill="#ffffb3" stroke="black" points="706.5,-122 557.5,-122 557.5,-86 706.5,-86 706.5,-122"/>
<text text-anchor="middle" x="632" y="-99.8" font-family="Times,serif" font-size="14.00">QuestionlistComponent</text>
</g>
<!-- QuestionlistComponent&#45;&gt;AppModule -->
<g id="edge9" class="edge">
<title>QuestionlistComponent&#45;&gt;AppModule</title>
<path fill="none" stroke="black" d="M632,-122.22C632,-140.83 632,-167 632,-167 632,-167 1057.09,-167 1057.09,-167"/>
<polygon fill="black" stroke="black" points="1057.09,-170.5 1067.09,-167 1057.09,-163.5 1057.09,-170.5"/>
</g>
<!-- QuestiontopiclistComponent -->
<g id="node10" class="node">
<title>QuestiontopiclistComponent</title>
<polygon fill="#ffffb3" stroke="black" points="539.49,-122 362.51,-122 362.51,-86 539.49,-86 539.49,-122"/>
<text text-anchor="middle" x="451" y="-99.8" font-family="Times,serif" font-size="14.00">QuestiontopiclistComponent</text>
</g>
<!-- QuestiontopiclistComponent&#45;&gt;AppModule -->
<g id="edge10" class="edge">
<title>QuestiontopiclistComponent&#45;&gt;AppModule</title>
<path fill="none" stroke="black" d="M451,-122.22C451,-142.37 451,-172 451,-172 451,-172 1057.34,-172 1057.34,-172"/>
<polygon fill="black" stroke="black" points="1057.34,-175.5 1067.34,-172 1057.34,-168.5 1057.34,-175.5"/>
</g>
<!-- SearchQueryPageComponent -->
<g id="node11" class="node">
<title>SearchQueryPageComponent</title>
<polygon fill="#ffffb3" stroke="black" points="344.61,-122 163.39,-122 163.39,-86 344.61,-86 344.61,-122"/>
<text text-anchor="middle" x="254" y="-99.8" font-family="Times,serif" font-size="14.00">SearchQueryPageComponent</text>
</g>
<!-- SearchQueryPageComponent&#45;&gt;AppModule -->
<g id="edge11" class="edge">
<title>SearchQueryPageComponent&#45;&gt;AppModule</title>
<path fill="none" stroke="black" d="M254,-122.04C254,-143.66 254,-177 254,-177 254,-177 1057.18,-177 1057.18,-177"/>
<polygon fill="black" stroke="black" points="1057.18,-180.5 1067.18,-177 1057.18,-173.5 1057.18,-180.5"/>
</g>
<!-- SignupComponent -->
<g id="node12" class="node">
<title>SignupComponent</title>
<polygon fill="#ffffb3" stroke="black" points="145.51,-122 24.49,-122 24.49,-86 145.51,-86 145.51,-122"/>
<text text-anchor="middle" x="85" y="-99.8" font-family="Times,serif" font-size="14.00">SignupComponent</text>
</g>
<!-- SignupComponent&#45;&gt;AppModule -->
<g id="edge12" class="edge">
<title>SignupComponent&#45;&gt;AppModule</title>
<path fill="none" stroke="black" d="M85,-122.09C85,-145.13 85,-182 85,-182 85,-182 1057.27,-182 1057.27,-182"/>
<polygon fill="black" stroke="black" points="1057.27,-185.5 1067.27,-182 1057.27,-178.5 1057.27,-185.5"/>
</g>
<!-- AppComponent  -->
<g id="node15" class="node">
<title>AppComponent </title>
<polygon fill="#80b1d3" stroke="black" points="1163.44,-252 1054.56,-252 1054.56,-216 1163.44,-216 1163.44,-252"/>
<text text-anchor="middle" x="1109" y="-229.8" font-family="Times,serif" font-size="14.00">AppComponent </text>
</g>
<!-- AppModule&#45;&gt;AppComponent  -->
<g id="edge14" class="edge">
<title>AppModule&#45;&gt;AppComponent </title>
<path fill="none" stroke="black" stroke-dasharray="1,5" d="M1109,-187.11C1109,-187.11 1109,-205.99 1109,-205.99"/>
<polygon fill="black" stroke="black" points="1105.5,-205.99 1109,-215.99 1112.5,-205.99 1105.5,-205.99"/>
</g>
<!-- AppRoutingModule -->
<g id="node14" class="node">
<title>AppRoutingModule</title>
<polygon fill="#8dd3c7" stroke="black" points="2206.27,-122 2203.27,-126 2182.27,-126 2179.27,-122 2077.73,-122 2077.73,-86 2206.27,-86 2206.27,-122"/>
<text text-anchor="middle" x="2142" y="-99.8" font-family="Times,serif" font-size="14.00">AppRoutingModule</text>
</g>
<!-- AppRoutingModule&#45;&gt;AppModule -->
<g id="edge13" class="edge">
<title>AppRoutingModule&#45;&gt;AppModule</title>
<path fill="none" stroke="black" d="M2142,-122.09C2142,-145.13 2142,-182 2142,-182 2142,-182 1160.77,-182 1160.77,-182"/>
<polygon fill="black" stroke="black" points="1160.77,-178.5 1150.77,-182 1160.77,-185.5 1160.77,-178.5"/>
</g>
</g>
</svg>
